<svg width="16" height="16" viewBox="0 0 16 16" fill="none" xmlns="http://www.w3.org/2000/svg">
<path d="M4 7.5C2.5 7.5 1.5 6.5 1.5 5.5C1.5 4.5 2.5 3.5 4 3.5H12C13.5 3.5 14.5 4.5 14.5 5.5C14.5 6.5 13.5 7.5 12 7.5H4Z" stroke="currentColor" stroke-width="1.5"/>
<path d="M4 7.5V10C4 10.8284 4.67157 11.5 5.5 11.5H10.5C11.3284 11.5 12 10.8284 12 10V7.5" stroke="currentColor" stroke-width="1.5"/>
<circle cx="6" cy="9.5" r="0.5" fill="currentColor"/>
<circle cx="7.5" cy="9.5" r="0.5" fill="currentColor"/>
<circle cx="11" cy="5.5" r="0.5" fill="currentColor"/>
<circle cx="12.5" cy="5.5" r="0.5" fill="currentColor"/>
<path d="M4 5.5H4.5" stroke="currentColor" stroke-width="1.5" stroke-linecap="round"/>
<path d="M4.25 5.25V5.75" stroke="currentColor" stroke-width="1.5" stroke-linecap="round"/>
</svg>