<svg width="16" height="16" viewBox="0 0 16 16" fill="none" xmlns="http://www.w3.org/2000/svg">
<path d="M2.5 2V8C2.5 8.82843 3.17157 9.5 4 9.5C4.82843 9.5 5.5 8.82843 5.5 8V2" stroke="currentColor" stroke-width="1.5"/>
<line x1="4" y1="9.5" x2="4" y2="14" stroke="currentColor" stroke-width="1.5" stroke-linecap="round"/>
<path d="M12 3V2H11V3H10V2H9V3C9 4.65685 10.3431 6 12 6C13.6569 6 15 4.65685 15 3V2H14V3H12Z" stroke="currentColor" stroke-width="1.5" stroke-linejoin="round"/>
<line x1="12" y1="6" x2="12" y2="14" stroke="currentColor" stroke-width="1.5" stroke-linecap="round"/>
<line x1="4" y1="4.5" x2="4" y2="4.5" stroke="currentColor" stroke-width="1.5" stroke-linecap="round"/>
<line x1="2.5" y1="4.5" x2="2.5" y2="4.5" stroke="currentColor" stroke-width="1.5" stroke-linecap="round"/>
<line x1="5.5" y1="4.5" x2="5.5" y2="4.5" stroke="currentColor" stroke-width="1.5" stroke-linecap="round"/>
</svg>