<svg width="16" height="16" viewBox="0 0 16 16" fill="none" xmlns="http://www.w3.org/2000/svg">
<path d="M1 8C1 8 3 6 5 8C7 10 9 6 11 8C13 10 15 8 15 8" stroke="currentColor" stroke-width="1.5" stroke-linecap="round" stroke-linejoin="round"/>
<path d="M1 6C1 6 3 4 5 6C7 8 9 4 11 6C13 8 15 6 15 6" stroke="currentColor" stroke-width="1.5" stroke-linecap="round" stroke-linejoin="round"/>
<path d="M1 10C1 10 3 8 5 10C7 12 9 8 11 10C13 12 15 10 15 10" stroke="currentColor" stroke-width="1.5" stroke-linecap="round" stroke-linejoin="round"/>
</svg>