<svg xmlns="http://www.w3.org/2000/svg"  viewBox="0 0 32 32" width="32px" height="32px"><path d="M 11 5 L 11 7 L 15 7 L 15 5 L 11 5 z M 15 7 L 15 9 L 17 9 L 17 12 L 19 12 L 19 9 L 21 9 L 21 6 L 19 6 L 19 7 L 15 7 z M 21 9 L 21 12 L 23 12 L 23 9 L 21 9 z M 23 12 L 23 15 L 25 15 L 25 12 L 23 12 z M 25 15 L 25 19 L 27 19 L 27 15 L 25 15 z M 27 19 L 27 22 L 14 22 L 13 22 L 13 19 L 11 19 L 11 22 L 8 22 L 8 24 L 11 24 L 11 27 L 15 27 L 15 24 L 18 24 L 18 27 L 22 27 L 22 24 L 29 24 L 29 22 L 29 19 L 27 19 z M 8 22 L 8 20 L 5 20 L 5 22 L 8 22 z M 5 20 L 5 16 L 9 16 L 9 14 L 7 14 L 7 11 L 5 11 L 5 14 L 3 14 L 3 16 L 3 20 L 5 20 z M 7 11 L 11 11 L 11 7 L 9 7 L 9 9 L 7 9 L 7 11 z M 13 19 L 15 19 L 15 15 L 13 15 L 13 19 z M 15 15 L 17 15 L 17 12 L 15 12 L 15 15 z"/></svg>