<svg xmlns="http://www.w3.org/2000/svg" viewBox="0 0 64 64"><path d="M36.063,43.351V40H12c-2.209,0-4-1.791-4-4v-8c0-2.209,1.791-4,4-4h24.063v-3.351c0-3.404,3.982-5.252,6.582-3.055l12.529,10.587c2.364,1.997,2.364,5.641,0,7.638L42.645,46.406C40.045,48.604,36.063,46.755,36.063,43.351z M13,36h25.063c1.105,0,2,0.895,2,2v4.59c0,0.301,0.352,0.464,0.582,0.27l11.947-10.096c0.473-0.399,0.473-1.128,0-1.528L40.645,21.14c-0.23-0.194-0.582-0.031-0.582,0.27V26c0,1.105-0.895,2-2,2H13c-0.552,0-1,0.448-1,1v6C12,35.552,12.448,36,13,36z"/></svg>