<svg xmlns="http://www.w3.org/2000/svg" viewBox="0 0 50 50"><path d="M 22 3 A 1.0001 1.0001 0 1 0 22 5 C 22 5 22.291248 5.013788 22.552734 5.1445312 C 22.723611 5.2299695 22.856141 5.3001887 22.931641 5.5136719 C 18.799697 6.9016751 15.698211 8.9272363 14.027344 10.193359 C 12.940344 11.016359 13.014437 12.677594 14.148438 13.433594 C 14.999437 14.000594 16 14 16 14 L 16.466797 14 C 16.369138 15.192362 16.444802 16.579806 16.800781 18.189453 C 16.390781 18.719453 16.009375 19.570234 16.109375 20.740234 C 16.399375 22.890234 17.220625 23.780391 17.890625 24.150391 C 18.200625 25.900391 19.050391 27.83 19.900391 28.75 L 19.900391 32.310547 C 19.290391 33.680547 17.299766 34.480391 15.009766 35.400391 C 11.139766 36.940391 6.34 38.869219 6 44.949219 L 5.9394531 46 L 28.609375 46 C 28.289375 45.32 28.099297 44.64 28.029297 44 L 8.1191406 44 C 8.8491406 40.01 12.35 38.61 15.75 37.25 C 17.762573 36.444971 19.69082 35.672465 20.890625 34.375 C 21.208816 34.670334 21.588616 34.919563 21.992188 35.126953 C 23.070626 35.681151 24.457143 36 26 36 C 27.554762 36 28.946074 35.6495 30.017578 35.083984 C 30.393642 34.885506 30.746717 34.655682 31.050781 34.390625 C 31.500572 34.863086 32.044954 35.268976 32.660156 35.630859 C 33.010156 35.170859 33.200859 34.330781 33.130859 33.550781 C 32.620859 33.190781 32.22 32.780781 32 32.300781 L 32 28.75 C 32.85 27.83 33.69 25.919687 34 24.179688 C 34.71 23.829687 35.590781 22.939688 35.800781 20.679688 C 35.890781 19.559687 35.580391 18.729219 35.150391 18.199219 C 35.51303 17.053609 35.835957 15.558546 35.970703 14 L 36 14 C 36 14 37.632 9.265 37 8 C 36 6 32.592 4 32 4 C 29.396719 4 26.98847 4.3761116 24.8125 4.9511719 C 24.530816 4.1744402 23.972496 3.6180839 23.447266 3.3554688 C 22.708752 2.9862117 22 3 22 3 z M 31.740234 6.0019531 C 32.550234 6.3509531 34.515484 7.6973906 35.146484 8.7753906 C 35.183484 9.2923906 34.92325 10.619 34.53125 12 L 16.03125 12 C 15.91425 11.996 15.522375 11.945109 15.234375 11.787109 C 17.506375 10.065109 23.631234 6.0859531 31.740234 6.0019531 z M 18.484375 14 L 33.960938 14 C 33.809597 15.549746 33.455563 17.065632 33.060547 18.160156 L 32.740234 18.990234 L 33.529297 19.380859 C 33.619297 19.450859 33.860781 19.789766 33.800781 20.509766 C 33.670781 21.989766 33.199609 22.380391 33.099609 22.400391 L 32.189453 22.400391 L 32.099609 23.310547 C 31.919609 25.200547 30.86 27.159688 30.5 27.429688 L 30 27.720703 L 30 32.5 C 30 32.48889 29.81248 32.931922 29.083984 33.316406 C 28.355488 33.70089 27.245238 34 26 34 C 24.742857 34 23.627812 33.718459 22.90625 33.347656 C 22.184688 32.976854 22 32.585897 22 32.5 A 1.0001 1.0001 0 0 0 21.900391 32.054688 L 21.900391 28.300781 L 21.919922 27.730469 L 21.419922 27.439453 C 21.039922 27.159453 19.980781 25.200547 19.800781 23.310547 L 19.779297 22.410156 L 18.869141 22.410156 C 18.729141 22.350156 18.279609 21.879531 18.099609 20.519531 C 18.089609 20.459531 18.089844 20.399844 18.089844 20.339844 C 18.089844 19.629844 18.460937 19.330078 18.460938 19.330078 L 19.039062 18.939453 L 18.869141 18.25 C 18.468111 16.685198 18.351008 15.263569 18.484375 14 z M 39.283203 28 C 36.871203 28.043 34.631609 29.5945 35.099609 33.1875 C 35.305609 34.7655 34.829656 36.615188 33.597656 37.492188 C 32.202656 38.485188 29.975 39.846359 30 43.443359 C 30 45.582359 32.649281 50 39.863281 50 C 44.593281 50 49.998047 47.274125 49.998047 39.578125 C 49.998047 33.990125 45.800906 28 39.378906 28 L 39.283203 28 z M 39.283203 30 L 39.378906 30 C 44.535906 30 47.998047 34.952125 47.998047 39.578125 C 47.998047 47.392125 41.771281 48 39.863281 48 C 33.936281 48 32 44.610688 32 43.429688 C 31.984 41.073687 33.213625 40.209922 34.515625 39.294922 L 34.757812 39.123047 C 36.874812 37.617047 37.332031 34.845688 37.082031 32.929688 C 36.992031 32.240687 36.993859 31.295172 37.505859 30.701172 C 38.014859 30.110172 38.860203 30.008 39.283203 30 z M 41 32 A 2 2 0 0 0 41 36 A 2 2 0 0 0 41 32 z M 44.5 38 C 43.672 38 43 38.672 43 39.5 C 43 40.328 43.672 41 44.5 41 C 45.328 41 46 40.328 46 39.5 C 46 38.672 45.328 38 44.5 38 z M 35.5 42 C 34.672 42 34 42.672 34 43.5 C 34 44.328 34.672 45 35.5 45 C 36.328 45 37 44.328 37 43.5 C 37 42.672 36.328 42 35.5 42 z M 43.5 42 C 42.672 42 42 42.672 42 43.5 C 42 44.328 42.672 45 43.5 45 C 44.328 45 45 44.328 45 43.5 C 45 42.672 44.328 42 43.5 42 z M 39.5 44 C 38.672 44 38 44.672 38 45.5 C 38 46.328 38.672 47 39.5 47 C 40.328 47 41 46.328 41 45.5 C 41 44.672 40.328 44 39.5 44 z"/></svg>