<svg xmlns="http://www.w3.org/2000/svg" viewBox="0 0 64 64"><path d="M 21 13 C 16.589 13 13 16.589 13 21 L 13 27.587891 C 10.069798 28.775473 8 31.643974 8 35 L 8 47 C 8 48.657 9.343 50 11 50 L 11 53 C 11 54.104 11.896 55 13 55 C 14.104 55 15 54.104 15 53 L 15 50 L 49 50 L 49 53 C 49 54.104 49.896 55 51 55 C 52.104 55 53 54.104 53 53 L 53 50 C 54.657 50 56 48.657 56 47 L 56 35 C 56 31.643974 53.930202 28.775473 51 27.587891 L 51 21 C 51 16.589 47.411 13 43 13 L 21 13 z M 21 17 L 43 17 C 45.206 17 47 18.794 47 21 L 47 27 L 43 27 C 43 25.895 42.105 25 41 25 L 36 25 C 34.895 25 34 25.895 34 27 L 30 27 C 30 25.895 29.105 25 28 25 L 23 25 C 21.895 25 21 25.895 21 27 L 17 27 L 17 21 C 17 18.794 18.794 17 21 17 z M 16 31 L 48 31 C 50.209 31 52 32.791 52 35 L 52 45 C 52 45.552 51.552 46 51 46 L 13 46 C 12.448 46 12 45.552 12 45 L 12 35 C 12 32.791 13.791 31 16 31 z"/></svg>