<svg xmlns="http://www.w3.org/2000/svg" viewBox="0 0 64 64"><path d="M 20 10 C 16.691 10 14 12.691 14 16 L 14 48 C 14 51.309 16.691 54 20 54 L 44 54 C 47.309 54 50 51.309 50 48 L 50 16 C 50 12.691 47.309 10 44 10 L 20 10 z M 20 14 L 44 14 C 45.103 14 46 14.897 46 16 L 46 48 C 46 49.103 45.103 50 44 50 L 20 50 C 18.897 50 18 49.103 18 48 L 18 16 C 18 14.897 18.897 14 20 14 z M 23 18 C 22.448 18 22 18.448 22 19 L 22 23 C 22 23.552 22.448 24 23 24 L 41 24 C 41.552 24 42 23.552 42 23 L 42 19 C 42 18.448 41.552 18 41 18 L 23 18 z M 23 28 C 22.448 28 22 28.448 22 29 L 22 31 C 22 31.552 22.448 32 23 32 L 25 32 C 25.552 32 26 31.552 26 31 L 26 29 C 26 28.448 25.552 28 25 28 L 23 28 z M 31 28 C 30.448 28 30 28.448 30 29 L 30 31 C 30 31.552 30.448 32 31 32 L 33 32 C 33.552 32 34 31.552 34 31 L 34 29 C 34 28.448 33.552 28 33 28 L 31 28 z M 39 28 C 38.448 28 38 28.448 38 29 L 38 31 C 38 31.552 38.448 32 39 32 L 41 32 C 41.552 32 42 31.552 42 31 L 42 29 C 42 28.448 41.552 28 41 28 L 39 28 z M 23 35 C 22.448 35 22 35.448 22 36 L 22 38 C 22 38.552 22.448 39 23 39 L 25 39 C 25.552 39 26 38.552 26 38 L 26 36 C 26 35.448 25.552 35 25 35 L 23 35 z M 31 35 C 30.448 35 30 35.448 30 36 L 30 38 C 30 38.552 30.448 39 31 39 L 33 39 C 33.552 39 34 38.552 34 38 L 34 36 C 34 35.448 33.552 35 33 35 L 31 35 z M 39 35 C 38.448 35 38 35.448 38 36 L 38 38 C 38 38.552 38.448 39 39 39 L 41 39 C 41.552 39 42 38.552 42 38 L 42 36 C 42 35.448 41.552 35 41 35 L 39 35 z M 23 42 C 22.448 42 22 42.448 22 43 L 22 45 C 22 45.552 22.448 46 23 46 L 33 46 C 33.552 46 34 45.552 34 45 L 34 43 C 34 42.448 33.552 42 33 42 L 23 42 z M 39 42 C 38.448 42 38 42.448 38 43 L 38 45 C 38 45.552 38.448 46 39 46 L 41 46 C 41.552 46 42 45.552 42 45 L 42 43 C 42 42.448 41.552 42 41 42 L 39 42 z"/></svg>