<svg xmlns="http://www.w3.org/2000/svg" viewBox="0 0 64 64"><path d="M 16 13 C 12.691 13 10 15.691 10 19 L 10 45 C 10 48.309 12.691 51 16 51 L 48 51 C 51.309 51 54 48.309 54 45 L 54 19 C 54 15.691 51.309 13 48 13 L 16 13 z M 16 22 L 48 22 C 49.103 22 50 22.897 50 24 L 50 45 C 50 46.103 49.103 47 48 47 L 16 47 C 14.897 47 14 46.103 14 45 L 14 24 C 14 22.897 14.897 22 16 22 z M 34.453125 26.5 C 33.869625 26.518844 33.323109 26.880437 33.099609 27.460938 L 28.099609 40.460938 C 27.802609 41.233938 28.189891 42.101438 28.962891 42.398438 C 29.139891 42.467438 29.32 42.5 29.5 42.5 C 30.103 42.5 30.671391 42.134109 30.900391 41.537109 L 35.900391 28.537109 C 36.197391 27.764109 35.810109 26.896609 35.037109 26.599609 C 34.844609 26.525109 34.647625 26.493719 34.453125 26.5 z M 39.587891 28.501953 C 39.204641 28.479078 38.813406 28.602906 38.503906 28.878906 C 37.884906 29.429906 37.827906 30.377094 38.378906 30.996094 L 41.492188 34.5 L 38.378906 38.003906 C 37.827906 38.622906 37.884906 39.571094 38.503906 40.121094 C 38.788906 40.375094 39.144047 40.5 39.498047 40.5 C 39.912047 40.5 40.325094 40.329094 40.621094 39.996094 L 44.621094 35.496094 C 45.126094 34.928094 45.126094 34.071906 44.621094 33.503906 L 40.621094 29.003906 C 40.346594 28.694406 39.971141 28.524828 39.587891 28.501953 z M 24.412109 28.503906 C 24.028734 28.526406 23.653906 28.694406 23.378906 29.003906 L 19.378906 33.503906 C 18.873906 34.071906 18.873906 34.928094 19.378906 35.496094 L 23.378906 39.996094 C 23.674906 40.329094 24.087953 40.5 24.501953 40.5 C 24.854953 40.5 25.211094 40.375094 25.496094 40.121094 C 26.115094 39.570094 26.172094 38.622906 25.621094 38.003906 L 22.507812 34.5 L 25.621094 30.996094 C 26.172094 30.377094 26.115094 29.428906 25.496094 28.878906 C 25.187594 28.604406 24.795484 28.481406 24.412109 28.503906 z"/></svg>