<svg xmlns="http://www.w3.org/2000/svg" viewBox="0 0 64 64"><path d="M 17 12 C 14.243 12 12 14.243 12 17 L 12 23 C 12 24.125 12.372953 25.164 13.001953 26 C 12.372953 26.836 12 27.875 12 29 L 12 35 C 12 36.125 12.372953 37.164 13.001953 38 C 12.372953 38.836 12 39.875 12 41 L 12 47 C 12 49.757 14.243 52 17 52 L 23 52 C 24.125 52 25.164 51.626047 26 50.998047 C 26.836 51.626047 27.875 52 29 52 L 35 52 C 36.125 52 37.164 51.626047 38 50.998047 C 38.836 51.626047 39.875 52 41 52 L 47 52 C 49.757 52 52 49.757 52 47 L 52 41 C 52 39.875 51.627047 38.836 50.998047 38 C 51.627047 37.164 52 36.125 52 35 L 52 29 C 52 27.875 51.627047 26.836 50.998047 26 C 51.627047 25.164 52 24.125 52 23 L 52 17 C 52 14.243 49.757 12 47 12 L 41 12 C 39.875 12 38.836 12.373953 38 13.001953 C 37.164 12.373953 36.125 12 35 12 L 29 12 C 27.875 12 26.836 12.373953 26 13.001953 C 25.164 12.373953 24.125 12 23 12 L 17 12 z M 17 16 L 23 16 C 23.552 16 24 16.449 24 17 L 24 23 C 24 23.551 23.552 24 23 24 L 17 24 C 16.448 24 16 23.551 16 23 L 16 17 C 16 16.449 16.448 16 17 16 z M 29 16 L 35 16 C 35.552 16 36 16.449 36 17 L 36 23 C 36 23.551 35.552 24 35 24 L 29 24 C 28.448 24 28 23.551 28 23 L 28 17 C 28 16.449 28.448 16 29 16 z M 41 16 L 47 16 C 47.552 16 48 16.449 48 17 L 48 23 C 48 23.551 47.552 24 47 24 L 41 24 C 40.448 24 40 23.551 40 23 L 40 17 C 40 16.449 40.448 16 41 16 z M 17 28 L 23 28 C 23.552 28 24 28.449 24 29 L 24 35 C 24 35.551 23.552 36 23 36 L 17 36 C 16.448 36 16 35.551 16 35 L 16 29 C 16 28.449 16.448 28 17 28 z M 29 28 L 35 28 C 35.552 28 36 28.449 36 29 L 36 35 C 36 35.551 35.552 36 35 36 L 29 36 C 28.448 36 28 35.551 28 35 L 28 29 C 28 28.449 28.448 28 29 28 z M 41 28 L 47 28 C 47.552 28 48 28.449 48 29 L 48 35 C 48 35.551 47.552 36 47 36 L 41 36 C 40.448 36 40 35.551 40 35 L 40 29 C 40 28.449 40.448 28 41 28 z M 17 40 L 23 40 C 23.552 40 24 40.449 24 41 L 24 47 C 24 47.551 23.552 48 23 48 L 17 48 C 16.448 48 16 47.551 16 47 L 16 41 C 16 40.449 16.448 40 17 40 z M 29 40 L 35 40 C 35.552 40 36 40.449 36 41 L 36 47 C 36 47.551 35.552 48 35 48 L 29 48 C 28.448 48 28 47.551 28 47 L 28 41 C 28 40.449 28.448 40 29 40 z M 41 40 L 47 40 C 47.552 40 48 40.449 48 41 L 48 47 C 48 47.551 47.552 48 47 48 L 41 48 C 40.448 48 40 47.551 40 47 L 40 41 C 40 40.449 40.448 40 41 40 z"/></svg>