<svg xmlns="http://www.w3.org/2000/svg" viewBox="0 0 64 64"><path d="M40.961,17.53C46.124,24.37,51,30.83,51,38c0,11.009-7.99,19-19,19s-19-7.991-19-19c0-7.07,4.766-13.378,9.812-20.057c2.005-2.655,4.08-5.401,5.859-8.221c0.716-1.135,1.988-1.814,3.331-1.814c1.364,0,2.636,0.687,3.374,1.834C37.079,12.387,39.053,15.002,40.961,17.53z M32,53c8.832,0,15-6.168,15-15c0-5.83-4.484-11.771-9.231-18.06c-1.651-2.187-3.349-4.437-4.912-6.754c-0.401-0.594-1.261-0.592-1.659,0.004c-1.644,2.464-3.445,4.848-5.195,7.164C21.373,26.482,17,32.271,17,38C17,46.832,23.168,53,32,53z"/></svg>