<svg xmlns="http://www.w3.org/2000/svg" viewBox="0 0 64 64"><path d="M 14.5 15 C 9.8149401 15 6.130919 20.794435 5.2207031 29 L 4.5 29 C 3.119 29 2 30.791 2 33 C 2 35.209 3.119 37 4.5 37 L 5.2207031 37 C 6.130919 45.205565 9.8149401 51 14.5 51 L 19.5 51 C 23.591 51 26.919687 46.582 28.304688 40 L 24.183594 40 C 23.072594 44.408 21.045 47 19.5 47 C 18.379 47 17.004906 45.636828 15.910156 43.205078 C 15.773312 42.901109 15.640714 42.580916 15.513672 42.244141 C 14.624375 39.886716 14 36.738875 14 33 C 14 32.465875 14.0127 31.942986 14.037109 31.433594 C 14.207977 27.867849 14.95225 24.922703 15.910156 22.794922 C 16.047 22.490953 16.187473 22.203603 16.332031 21.933594 C 17.343938 20.043529 18.519125 19 19.5 19 C 21.367816 19 23.933414 22.79496 24.740234 29 L 20.5 29 C 19.119 29 18 30.791 18 33 C 18 35.209 19.119 37 20.5 37 L 35.220703 37 C 36.130919 45.205565 39.81494 51 44.5 51 L 49.5 51 C 53.591 51 56.919688 46.582 58.304688 40 L 54.183594 40 C 53.072594 44.408 51.045 47 49.5 47 C 48.379 47 47.004906 45.636828 45.910156 43.205078 C 45.773313 42.901109 45.640714 42.580916 45.513672 42.244141 C 44.624375 39.886716 44 36.738875 44 33 C 44 32.465875 44.0127 31.942986 44.037109 31.433594 C 44.207977 27.867849 44.95225 24.922703 45.910156 22.794922 C 46.047 22.490953 46.187473 22.203603 46.332031 21.933594 C 47.343938 20.043529 48.519125 19 49.5 19 C 51.367816 19 53.933414 22.79496 54.740234 29 L 50.5 29 C 49.119 29 48 30.791 48 33 C 48 35.209 49.119 37 50.5 37 L 59.5 37 C 60.881 37 62 35.209 62 33 C 62 30.791 60.881 29 59.5 29 L 58.779297 29 C 57.869081 20.794435 54.18506 15 49.5 15 L 44.5 15 C 39.81494 15 36.130919 20.794435 35.220703 29 L 28.779297 29 C 27.869081 20.794435 24.18506 15 19.5 15 L 14.5 15 z"/></svg>