<svg xmlns="http://www.w3.org/2000/svg" viewBox="0 0 50 50"><path d="M 24.964844 0 A 1.0001 1.0001 0 0 0 24.382812 0.21289062 L 1.3828125 18.212891 A 1.0002305 1.0002305 0 1 0 2.6171875 19.787109 L 4 18.705078 L 4 45 A 1.0001 1.0001 0 0 0 5 46 L 45 46 A 1.0001 1.0001 0 0 0 46 45 L 46 18.705078 L 47.382812 19.787109 A 1.0002308 1.0002308 0 1 0 48.617188 18.212891 L 45.632812 15.878906 L 25.617188 0.21289062 A 1.0001 1.0001 0 0 0 24.964844 0 z M 25 2.2695312 L 44 17.138672 L 44 44 L 6 44 L 6 17.138672 L 25 2.2695312 z M 10.5 16 A 1.5 1.5 0 0 0 10.5 19 A 1.5 1.5 0 0 0 11.914062 17.994141 L 14.453125 17.994141 C 15.015404 17.994141 15.202209 18.091761 15.341797 18.214844 C 15.479965 18.336679 15.642734 18.607012 15.800781 19.125 L 19.855469 35.230469 A 0.99359934 0.99359934 0 0 0 19.859375 35.244141 C 20.013407 35.820373 20.159734 36.483913 20.6875 37.080078 C 20.866201 37.281939 21.095938 37.439656 21.345703 37.576172 C 21.117457 38.024022 21 38.512845 21 39 C 21 39.722222 21.235347 40.457881 21.751953 41.039062 C 22.268559 41.620244 23.083334 42 24 42 C 24.916666 42 25.731441 41.620244 26.248047 41.039062 C 26.764653 40.457881 27 39.722222 27 39 C 27 38.661498 26.944064 38.321257 26.835938 37.994141 L 29.164062 37.994141 C 29.055936 38.321257 29 38.661498 29 39 C 29 39.722222 29.235347 40.457881 29.751953 41.039062 C 30.268559 41.620244 31.083334 42 32 42 C 32.916666 42 33.731441 41.620244 34.248047 41.039062 C 34.764653 40.457881 35 39.722222 35 39 C 35 38.277778 34.764653 37.542119 34.248047 36.960938 C 33.731441 36.379756 32.916666 36 32 36 C 31.980509 36 31.962756 36.005518 31.943359 36.005859 L 24.056641 36.005859 C 24.037244 36.005518 24.019491 36 24 36 C 23.980509 36 23.962756 36.005518 23.943359 36.005859 L 23.117188 36.005859 C 22.413746 36.005859 22.284562 35.888757 22.173828 35.763672 C 22.064513 35.640189 21.93181 35.296055 21.783203 34.744141 L 21.78125 34.734375 C 21.780657 34.732175 21.779897 34.732669 21.779297 34.730469 L 21.59375 33.994141 L 31.990234 33.994141 A 0.99359934 0.99359934 0 0 0 32.914062 33.365234 L 36.861328 23.365234 A 0.99359934 0.99359934 0 0 0 35.9375 22.005859 L 18.574219 22.005859 L 17.71875 18.605469 A 0.99359934 0.99359934 0 0 0 17.707031 18.560547 C 17.500654 17.877134 17.220912 17.222522 16.65625 16.724609 C 16.091588 16.226697 15.311846 16.005859 14.453125 16.005859 L 10.740234 16.005859 A 0.994141 0.994141 0 0 0 10.658203 16.009766 A 1.5 1.5 0 0 0 10.5 16 z M 19.076172 23.994141 L 34.476562 23.994141 L 31.314453 32.005859 L 21.09375 32.005859 L 19.076172 23.994141 z M 24 38 C 24.416666 38 24.601893 38.120244 24.751953 38.289062 C 24.902014 38.457881 25 38.722222 25 39 C 25 39.277778 24.90201 39.542119 24.751953 39.710938 C 24.601893 39.879756 24.416666 40 24 40 C 23.583334 40 23.398107 39.879756 23.248047 39.710938 C 23.097986 39.542119 23 39.277778 23 39 C 23 38.722222 23.097986 38.457881 23.248047 38.289062 C 23.398107 38.120244 23.583334 38 24 38 z M 32 38 C 32.416666 38 32.601893 38.120244 32.751953 38.289062 C 32.902014 38.457881 33 38.722222 33 39 C 33 39.277778 32.90201 39.542119 32.751953 39.710938 C 32.601893 39.879756 32.416666 40 32 40 C 31.583334 40 31.398107 39.879756 31.248047 39.710938 C 31.097986 39.542119 31 39.277778 31 39 C 31 38.722222 31.097986 38.457881 31.248047 38.289062 C 31.398107 38.120244 31.583334 38 32 38 z"/></svg>