<svg xmlns="http://www.w3.org/2000/svg" viewBox="0 0 64 64"><path d="M 36.078125 8.5410156 C 28.677723 8.376075 22.067391 10.512812 17.095703 14.75 C 11.230703 19.75 8 27.296 8 36 C 8 42.937 10.734562 51.277906 10.851562 51.628906 C 11.121563 52.447906 11.888 53 12.75 53 L 19.998047 53 L 20 53 C 20.145817 53 20.286854 52.982802 20.423828 52.953125 C 20.427112 52.952396 20.430311 52.951919 20.433594 52.951172 C 20.472658 52.942483 20.506931 52.924883 20.544922 52.914062 C 20.630415 52.889663 20.716463 52.867116 20.796875 52.832031 C 20.851489 52.808343 20.899527 52.77616 20.951172 52.748047 C 21.015479 52.712916 21.08084 52.680414 21.140625 52.638672 C 21.182296 52.609626 21.218711 52.574918 21.257812 52.542969 C 21.317975 52.493831 21.379553 52.446326 21.433594 52.390625 C 21.479649 52.343096 21.517573 52.289967 21.558594 52.238281 C 21.595308 52.192171 21.635371 52.148903 21.667969 52.099609 C 21.709946 52.035915 21.742842 51.966543 21.777344 51.898438 C 21.801429 51.850985 21.82734 51.805393 21.847656 51.755859 C 21.873893 51.69201 21.890579 51.625129 21.910156 51.558594 C 21.92771 51.498723 21.948982 51.440957 21.960938 51.378906 C 21.975119 51.30593 21.978437 51.231181 21.984375 51.15625 C 21.988518 51.103727 22 51.053582 22 51 C 22 50.995291 21.998079 50.991029 21.998047 50.986328 C 21.997595 50.926258 21.986462 50.865358 21.980469 50.804688 C 21.972886 50.727831 21.96917 50.650231 21.953125 50.576172 C 21.95241 50.572871 21.951904 50.569708 21.951172 50.566406 C 21.932172 50.479406 20 41.721 20 37 C 20 31.773 21.745359 22.608219 33.443359 19.949219 C 34.039359 19.814219 34.542641 19.412375 34.806641 18.859375 C 35.853641 16.662375 37.559 15.170469 39 14.230469 L 39 18.5 C 39 19.263 39.437047 19.960875 40.123047 20.296875 C 40.149047 20.309875 42.730609 21.583781 44.349609 23.175781 C 46.114609 24.911781 46.854219 26.878984 47.449219 28.458984 C 47.826219 29.460984 48.150453 30.326 48.689453 31 C 49.034453 31.431 49.702672 32.012781 50.763672 32.925781 C 51.137672 33.248781 51.507688 33.566984 51.804688 33.833984 C 53.027688 34.934984 53.318094 36.769266 52.496094 38.197266 C 51.640094 39.684266 49.510578 40.132375 47.517578 39.234375 L 45.044922 38.164062 C 44.794922 38.055062 44.523 38 44.25 38 C 36.401 38 34.274953 37.1245 32.876953 33.3125 C 32.769999 33.020627 32.597639 32.773099 32.388672 32.570312 C 32.163493 32.32443 31.873602 32.157808 31.513672 32.070312 C 31.473729 32.059638 31.433212 32.053121 31.392578 32.044922 C 31.34308 32.035679 31.298076 32.022093 31.246094 32.015625 C 31.222979 32.012765 31.200776 32.015709 31.177734 32.013672 C 31.10594 32.007211 31.033732 32.006395 30.960938 32.007812 C 30.90051 32.009131 30.840604 32.010839 30.78125 32.017578 C 30.710063 32.025428 30.639486 32.040866 30.568359 32.056641 C 30.509716 32.069883 30.451388 32.083207 30.394531 32.101562 C 30.366629 32.110422 30.338312 32.112892 30.310547 32.123047 C 30.269392 32.138128 30.234851 32.162239 30.195312 32.179688 C 30.140155 32.204259 30.085813 32.228482 30.033203 32.257812 C 29.969634 32.292993 29.909999 32.331836 29.851562 32.373047 C 29.806169 32.405105 29.763325 32.438926 29.720703 32.474609 C 29.66076 32.524876 29.603897 32.576417 29.550781 32.632812 C 29.517968 32.667415 29.487379 32.703293 29.457031 32.740234 C 29.406526 32.802205 29.360933 32.866343 29.318359 32.933594 C 29.289362 32.978964 29.261695 33.024367 29.236328 33.072266 C 29.202237 33.137079 29.173314 33.203334 29.146484 33.271484 C 29.125726 33.324068 29.106184 33.376783 29.089844 33.431641 C 29.068369 33.503535 29.052384 33.57621 29.039062 33.650391 C 29.032797 33.685447 29.020058 33.718145 29.015625 33.753906 C 29.013572 33.770471 29.012241 33.827243 29.009766 33.853516 C 29.00752 33.883539 29.004787 33.91315 29.003906 33.943359 C 28.943203 34.847099 29.018493 38.9028 34.386719 45.230469 C 37.423719 48.811469 38.040016 51.398297 38.041016 51.404297 C 38.236016 52.349297 39.069047 53 39.998047 53 C 40.132047 53 40.267344 52.986984 40.402344 52.958984 C 41.484344 52.735984 42.180031 51.677703 41.957031 50.595703 C 41.884031 50.241703 41.1375 47.007531 37.4375 42.644531 C 37.048322 42.185714 36.733453 41.772809 36.410156 41.353516 C 38.559746 41.881684 41.050186 41.991339 43.835938 42 L 45.900391 42.892578 C 49.747391 44.630578 54.073937 43.470359 55.960938 40.193359 C 57.719938 37.140359 57.095516 33.214375 54.478516 30.859375 C 54.162516 30.575375 53.769094 30.236531 53.371094 29.894531 C 52.854094 29.449531 51.9915 28.706953 51.8125 28.501953 C 51.6665 28.313953 51.390453 27.583781 51.189453 27.050781 C 50.535453 25.308781 49.546344 22.678219 47.152344 20.324219 C 45.826344 19.019219 44.109 17.936688 43 17.304688 L 43 11 C 43 10.986078 42.996382 10.972867 42.996094 10.958984 C 42.993485 10.824892 42.977681 10.694142 42.949219 10.566406 C 42.946668 10.554961 42.948061 10.542631 42.945312 10.53125 C 42.944683 10.528636 42.943999 10.526048 42.943359 10.523438 C 42.908885 10.383123 42.85587 10.24919 42.792969 10.121094 C 42.776993 10.08852 42.756009 10.059007 42.738281 10.027344 C 42.684877 9.9320541 42.626662 9.841144 42.558594 9.7558594 C 42.529711 9.7196383 42.49826 9.686608 42.466797 9.6523438 C 42.397003 9.5762616 42.321416 9.5061802 42.240234 9.4414062 C 42.219046 9.4245355 42.203603 9.4027962 42.181641 9.3867188 C 42.167599 9.3764396 42.150978 9.3712081 42.136719 9.3613281 C 42.041957 9.2954135 41.940602 9.2405682 41.833984 9.1914062 C 41.804836 9.1779511 41.777724 9.160441 41.748047 9.1484375 C 41.632842 9.101999 41.510809 9.0677676 41.384766 9.0429688 C 41.361605 9.0384025 41.339711 9.0291333 41.316406 9.0253906 C 41.315121 9.0251842 41.313786 9.0255945 41.3125 9.0253906 C 39.532394 8.7400275 37.784677 8.5790514 36.078125 8.5410156 z M 34.623047 12.539062 C 34.635935 12.538784 34.649215 12.539324 34.662109 12.539062 C 33.570822 13.526268 32.502793 14.752078 31.644531 16.273438 C 21.686531 18.891437 16 26.396 16 37 C 16 40.612236 16.946513 45.93005 17.552734 49 L 14.230469 49 C 13.484469 46.431 12 40.728 12 36 C 12 28.487 14.731406 22.020922 19.691406 17.794922 C 23.600406 14.461922 28.769344 12.665391 34.623047 12.539062 z M 39.707031 26.904297 C 38.929287 26.846582 38.398984 27.196875 38.177734 27.75 C 37.677734 29 38.198734 30.369406 39.927734 30.816406 C 41.404734 31.198406 43.091 30.955656 43.375 30.347656 C 43.659 29.739656 42.673375 28.267188 41.359375 27.492188 C 40.72825 27.119813 40.173678 26.938926 39.707031 26.904297 z"/></svg>