<svg xmlns="http://www.w3.org/2000/svg" viewBox="0 0 50 50"><path d="M 25 0 C 19.355469 0 14.746094 4.433594 14.4375 10 C 9.980469 11.257813 6.6875 15.34375 6.6875 20.1875 C 6.6875 20.4375 6.671875 20.710938 6.6875 21 L 4 21 C 2.632813 21 1.628906 22.328125 2.0625 23.625 C 2.0625 23.636719 2.0625 23.644531 2.0625 23.65625 L 2.46875 24.75 C 4.964844 31.519531 10.785156 36.316406 17.6875 37.625 C 17.707031 37.636719 17.730469 37.648438 17.75 37.65625 C 18.847656 38.605469 18.847656 39.894531 17.75 40.84375 C 17.738281 40.855469 17.730469 40.863281 17.71875 40.875 C 17.707031 40.886719 17.699219 40.894531 17.6875 40.90625 C 14.445313 42.226563 11.71875 44.921875 10.09375 48.46875 C 10.03125 48.605469 9.996094 48.753906 10 48.90625 L 10 49 C 10 49.550781 10.449219 50 11 50 L 39 50 C 39.550781 50 40 49.550781 40 49 L 40 48.90625 C 39.996094 48.765625 39.964844 48.628906 39.90625 48.5 C 38.332031 44.90625 35.546875 42.15625 32.25 40.84375 C 31.152344 39.894531 31.152344 38.605469 32.25 37.65625 C 32.273438 37.636719 32.292969 37.617188 32.3125 37.59375 C 39.171875 36.257813 44.953125 31.488281 47.4375 24.75 L 47.84375 23.65625 L 47.8125 23.65625 C 48.351563 22.402344 47.332031 21 46 21 L 43.3125 21 C 43.328125 20.710938 43.3125 20.4375 43.3125 20.1875 C 43.3125 15.34375 40.019531 11.257813 35.5625 10 C 35.253906 4.433594 30.644531 0 25 0 Z M 25 2 C 29.441406 2 33.097656 5.34375 33.5625 9.65625 C 33.277344 9.632813 32.980469 9.59375 32.6875 9.59375 C 29.644531 9.59375 26.972656 10.914063 25.03125 12.90625 C 23.09375 10.878906 20.355469 9.59375 17.3125 9.59375 C 17.019531 9.59375 16.722656 9.632813 16.4375 9.65625 C 16.902344 5.34375 20.558594 2 25 2 Z M 17.3125 11.59375 C 21.449219 11.59375 24.824219 14.460938 25.71875 18.21875 C 25.839844 18.761719 26.378906 19.105469 26.921875 18.984375 C 27.464844 18.863281 27.808594 18.324219 27.6875 17.78125 C 27.40625 16.605469 26.921875 15.496094 26.28125 14.5 C 27.898438 12.734375 30.117188 11.59375 32.6875 11.59375 C 37.445313 11.59375 41.3125 15.429688 41.3125 20.1875 C 41.3125 20.476563 41.300781 20.753906 41.28125 21 L 8.71875 21 C 8.699219 20.753906 8.6875 20.476563 8.6875 20.1875 C 8.6875 15.429688 12.554688 11.59375 17.3125 11.59375 Z M 4 23 L 45.96875 23 L 45.5625 24.0625 C 42.90625 31.273438 36.09375 36 28.40625 36 L 21.5 36 C 13.8125 36 7 31.273438 4.34375 24.0625 L 3.96875 23.03125 C 3.976563 23.027344 3.984375 23 4 23 Z M 20.25 37.9375 C 20.664063 37.960938 21.082031 38 21.5 38 L 28.40625 38 C 28.855469 38 29.308594 37.964844 29.75 37.9375 C 29.5 38.660156 29.453125 39.417969 29.625 40.15625 C 29.03125 40.0625 28.421875 40 27.8125 40 L 22.1875 40 C 21.578125 40 20.96875 40.0625 20.375 40.15625 C 20.546875 39.417969 20.5 38.660156 20.25 37.9375 Z M 22.1875 42 L 27.8125 42 C 31.609375 42 35.148438 44.34375 37.28125 48 L 12.71875 48 C 14.910156 44.324219 18.386719 42 22.1875 42 Z"/></svg>