<svg xmlns="http://www.w3.org/2000/svg" viewBox="0 0 50 50"><path d="M 25 1 C 19.488281 1 15 5.488281 15 11 C 15 15.464844 17.949219 19.257813 22 20.535156 L 22 43.246094 L 25 48.988281 L 28 43.246094 L 28 20.535156 C 32.050781 19.257813 35 15.464844 35 11 C 35 5.488281 30.511719 1 25 1 Z M 25 3 C 29.429688 3 33 6.570313 33 11 C 33 15.429688 29.429688 19 25 19 C 20.570313 19 17 15.429688 17 11 C 17 6.570313 20.570313 3 25 3 Z M 25 5 C 21.699219 5 19 7.699219 19 11 C 18.996094 11.359375 19.183594 11.695313 19.496094 11.878906 C 19.808594 12.058594 20.191406 12.058594 20.503906 11.878906 C 20.816406 11.695313 21.003906 11.359375 21 11 C 21 8.78125 22.78125 7 25 7 C 25.359375 7.003906 25.695313 6.816406 25.878906 6.503906 C 26.058594 6.191406 26.058594 5.808594 25.878906 5.496094 C 25.695313 5.183594 25.359375 4.996094 25 5 Z M 24 21 L 26 21 L 26 42.753906 L 25 44.671875 L 24 42.753906 Z"/></svg>