<svg xmlns="http://www.w3.org/2000/svg" viewBox="0 0 50 50"><path d="M 22.8125 2 C 22.335938 2.089844 21.992188 2.511719 22 3 L 22 4.84375 L 18.3125 4.84375 C 17.617188 4.84375 16.855469 4.5625 16.25 4.03125 C 15.648438 3.496094 14.933594 3.148438 14.15625 2.96875 C 13.769531 2.878906 13.371094 2.835938 12.96875 2.84375 C 12.566406 2.851563 12.15625 2.90625 11.75 3 C 11.730469 3 11.707031 3 11.6875 3 C 9.921875 3.503906 8.375 4.859375 7.96875 6.75 L 8 6.75 C 7.238281 10.042969 9.769531 13.15625 13 13.15625 C 14.304688 13.15625 15.46875 12.625 16.34375 11.875 C 16.867188 11.425781 17.492188 11.15625 18.1875 11.15625 L 31.8125 11.15625 C 32.507813 11.15625 33.132813 11.425781 33.65625 11.875 C 34.53125 12.625 35.695313 13.15625 37 13.15625 C 40.199219 13.15625 42.777344 10.109375 42.03125 6.75 C 41.628906 4.871094 40.128906 3.371094 38.25 2.96875 L 38.25 3 C 36.625 2.625 34.953125 2.960938 33.75 4.03125 C 33.144531 4.5625 32.382813 4.84375 31.6875 4.84375 L 28 4.84375 L 28 3 C 28 2.449219 27.550781 2 27 2 L 23 2 C 22.96875 2 22.9375 2 22.90625 2 C 22.875 2 22.84375 2 22.8125 2 Z M 24 4 L 26 4 L 26 4.84375 L 24 4.84375 Z M 12.96875 5.125 C 13.199219 5.117188 13.414063 5.140625 13.625 5.1875 C 14.050781 5.285156 14.453125 5.484375 14.75 5.75 C 15.742188 6.617188 17.007813 7.15625 18.3125 7.15625 L 31.6875 7.15625 C 32.992188 7.15625 34.257813 6.617188 35.25 5.75 C 35.847656 5.21875 36.773438 4.992188 37.75 5.21875 C 38.671875 5.414063 39.585938 6.328125 39.78125 7.25 C 40.234375 9.289063 38.800781 10.84375 37 10.84375 C 36.304688 10.84375 35.679688 10.574219 35.15625 10.125 C 34.28125 9.375 33.117188 8.84375 31.8125 8.84375 L 18.1875 8.84375 C 16.882813 8.84375 15.71875 9.375 14.84375 10.125 C 14.320313 10.574219 13.695313 10.84375 13 10.84375 C 11.230469 10.84375 9.777344 9.15625 10.21875 7.25 C 10.410156 6.359375 11.246094 5.53125 12.25 5.21875 C 12.492188 5.164063 12.738281 5.132813 12.96875 5.125 Z M 22 12 L 22 19.4375 C 19.992188 20.070313 18.273438 21.355469 17.03125 23 L 8 23 L 8 16 C 8 15.449219 7.550781 15 7 15 L 1 15 C 0.96875 15 0.9375 15 0.90625 15 C 0.875 15 0.84375 15 0.8125 15 C 0.335938 15.089844 -0.0078125 15.511719 0 16 L 0 42 C 0 42.550781 0.449219 43 1 43 L 7 43 C 7.550781 43 8 42.550781 8 42 L 8 35 L 17.03125 35 C 18.859375 37.417969 21.742188 39 25 39 C 28.257813 39 31.140625 37.417969 32.96875 35 L 33.8125 35 C 34.972656 35 35.96875 35.40625 36.78125 36.21875 C 37.59375 37.03125 38 38.027344 38 39.1875 L 38 47 C 38 47.550781 38.449219 48 39 48 L 49 48 C 49.550781 48 50 47.550781 50 47 L 50 39.1875 C 50 34.828125 48.296875 30.765625 45.21875 27.6875 C 42.140625 24.609375 38.046875 22.90625 33.6875 22.90625 L 32.90625 22.90625 C 31.667969 21.308594 29.96875 20.058594 28 19.4375 L 28 12 L 26 12 L 26 19.0625 C 25.675781 19.03125 25.335938 19 25 19 C 24.664063 19 24.324219 19.03125 24 19.0625 L 24 12 Z M 2 17 L 6 17 L 6 23.6875 C 5.941406 23.882813 5.941406 24.085938 6 24.28125 L 6 33.6875 C 5.941406 33.882813 5.941406 34.085938 6 34.28125 L 6 41 L 2 41 Z M 25 21 C 27.574219 21 29.851563 22.214844 31.3125 24.09375 C 31.363281 24.378906 31.53125 24.628906 31.78125 24.78125 C 32.542969 26.007813 33 27.445313 33 29 C 33 30.660156 32.484375 32.191406 31.625 33.46875 C 31.613281 33.488281 31.601563 33.511719 31.59375 33.53125 C 30.152344 35.625 27.742188 37 25 37 C 22.28125 37 19.882813 35.65625 18.4375 33.59375 C 18.417969 33.550781 18.398438 33.507813 18.375 33.46875 C 18.367188 33.457031 18.351563 33.449219 18.34375 33.4375 C 18.324219 33.40625 18.304688 33.375 18.28125 33.34375 C 17.472656 32.09375 17 30.605469 17 29 C 17 27.355469 17.496094 25.832031 18.34375 24.5625 C 18.355469 24.550781 18.363281 24.542969 18.375 24.53125 C 19.808594 22.402344 22.230469 21 25 21 Z M 34.125 24.9375 C 37.796875 25.042969 41.164063 26.476563 43.78125 29.09375 C 46.503906 31.816406 48 35.347656 48 39.1875 L 48 46 L 40 46 L 40 39.1875 C 40 37.550781 39.40625 35.96875 38.21875 34.78125 C 37.113281 33.675781 35.671875 33.105469 34.15625 33.03125 C 34.703125 31.792969 35 30.4375 35 29 C 35 27.546875 34.683594 26.183594 34.125 24.9375 Z M 8 25 L 15.84375 25 C 15.300781 26.230469 15 27.574219 15 29 C 15 30.425781 15.300781 31.769531 15.84375 33 L 8 33 Z M 20.84375 31 C 20.492188 31.050781 20.195313 31.28125 20.058594 31.609375 C 19.925781 31.9375 19.972656 32.3125 20.1875 32.59375 C 21.257813 34.019531 22.984375 35 25 35 C 27.015625 35 28.742188 34.019531 29.8125 32.59375 C 30.140625 32.144531 30.042969 31.515625 29.59375 31.1875 C 29.144531 30.859375 28.515625 30.957031 28.1875 31.40625 C 27.457031 32.378906 26.386719 33 25 33 C 23.613281 33 22.542969 32.378906 21.8125 31.40625 C 21.59375 31.097656 21.21875 30.941406 20.84375 31 Z"/></svg>