<svg xmlns="http://www.w3.org/2000/svg" viewBox="0 0 64 64"><path d="M 36.873047 9.0996094 C 36.361797 9.1221094 35.859328 9.3405469 35.486328 9.7480469 C 35.325989 9.9233014 31.79784 13.821272 29.429688 18.068359 C 28.573646 18.083904 27.704181 18.126104 26.816406 18.207031 C 26.692295 18.218389 26.569072 18.241729 26.445312 18.257812 C 28.336692 15.607995 30.256281 13.377558 30.287109 13.341797 C 31.010109 12.505797 30.918031 11.241531 30.082031 10.519531 C 29.246031 9.7965312 27.983719 9.8886094 27.261719 10.724609 C 27.04759 10.970568 22.207389 16.613157 20.017578 21.119141 C 13.714439 25.882757 9 35.224636 9 40.080078 C 9 48.481459 18.267185 53.803837 34.505859 54.863281 C 35.303743 54.94571 36.127992 55 37 55 C 44.797 55 49.835281 53.928797 50.863281 48.591797 C 51.409281 45.756797 50.121047 43.413438 48.873047 41.148438 C 47.759047 39.127437 46.607422 37.037344 46.607422 34.402344 C 46.607422 33.707344 46.678953 32.843688 46.751953 31.929688 C 46.991377 28.940543 47.252604 25.591068 45.695312 23.300781 C 48.559392 17.84709 54.109541 13.683728 54.167969 13.640625 C 55.054969 12.983625 55.241937 11.73175 54.585938 10.84375 C 53.927938 9.95575 52.676016 9.7688281 51.791016 10.423828 C 51.53031 10.615878 45.798481 14.896924 42.445312 20.896484 C 41.759805 20.553125 41.065814 20.239444 40.359375 19.958984 C 42.665469 15.852032 46.217072 12.624937 46.255859 12.589844 C 47.077859 11.853844 47.149062 10.591578 46.414062 9.7675781 C 45.681063 8.9435781 44.41775 8.8685156 43.59375 9.6035156 C 43.403643 9.7713144 39.067676 13.674625 36.445312 18.759766 C 35.626345 18.57524 34.796452 18.416826 33.947266 18.306641 C 35.98659 15.156925 38.407316 12.480627 38.4375 12.447266 C 39.1825 11.632266 39.124547 10.368047 38.310547 9.6230469 C 37.903547 9.2505469 37.384297 9.0771094 36.873047 9.0996094 z M 29.492188 22.050781 C 31.077468 22.016958 33.183345 22.11976 35.537109 22.654297 C 28.559115 26.771582 23 37.568258 23 43.080078 C 23 45.529515 23.541567 47.634816 24.564453 49.371094 C 17.234691 47.521577 13 44.259022 13 40.080078 C 13 35.135078 20.418594 22.810406 27.183594 22.191406 C 27.707094 22.143406 28.497672 22.072 29.492188 22.050781 z M 41 25 C 41.431818 25 41.712921 25.068037 41.90625 25.148438 C 41.992224 25.198119 42.079987 25.24174 42.166016 25.292969 C 42.16729 25.293728 42.168648 25.294163 42.169922 25.294922 C 42.21827 25.333984 42.250041 25.369229 42.271484 25.392578 C 43.182484 26.379578 42.940672 29.403328 42.763672 31.611328 C 42.683672 32.606328 42.609375 33.547344 42.609375 34.402344 C 42.609375 38.066344 44.140141 40.847078 45.369141 43.080078 C 46.509141 45.150078 47.1975 46.488937 46.9375 47.835938 C 46.679764 49.169569 46.323461 50.996254 37.025391 51 C 36.203421 50.968579 35.404001 50.920579 34.617188 50.867188 C 29.561216 50.273726 27 47.662944 27 43.080078 C 27 37.834078 34.473 25 41 25 z M 39.080078 29.382812 C 38.107234 29.282781 36.707891 30.082109 35.650391 31.537109 C 34.240391 33.477109 33.636875 36.581391 35.046875 36.775391 C 35.651875 36.969391 36.047031 35.481656 37.457031 33.347656 C 38.867031 31.019656 40.486812 30.568969 39.882812 29.792969 C 39.681313 29.550469 39.404359 29.416156 39.080078 29.382812 z M 39.064453 39.310547 C 38.960545 39.290797 38.865703 39.299703 38.783203 39.337891 C 37.850203 39.768891 39.661469 43.758625 38.855469 44.765625 C 37.243469 46.780625 33.412109 45.818172 33.412109 46.826172 C 33.412109 47.834172 40.764359 48.410187 42.443359 47.367188 C 44.331484 46.045313 40.623069 39.606793 39.064453 39.310547 z"/></svg>