<svg xmlns="http://www.w3.org/2000/svg" viewBox="0 0 64 64"><path d="M 21 9 C 17.686 9 15 11.686 15 15 L 15 49 C 15 52.314 17.686 55 21 55 L 43 55 C 46.314 55 49 52.314 49 49 L 49 15 C 49 11.686 46.314 9 43 9 L 21 9 z M 21 13 L 43 13 C 44.105 13 45 13.895 45 15 L 45 26 L 19 26 L 19 15 C 19 13.895 19.895 13 21 13 z M 24 16 C 22.896 16 22 16.896 22 18 L 22 21 C 22 22.104 22.896 23 24 23 C 25.104 23 26 22.104 26 21 L 26 18 C 26 16.896 25.104 16 24 16 z M 19 30 L 45 30 L 45 49 C 45 50.105 44.105 51 43 51 L 21 51 C 19.895 51 19 50.105 19 49 L 19 30 z M 24 33 C 22.896 33 22 33.896 22 35 L 22 41 C 22 42.104 22.896 43 24 43 C 25.104 43 26 42.104 26 41 L 26 35 C 26 33.896 25.104 33 24 33 z"/></svg>