<svg xmlns="http://www.w3.org/2000/svg" viewBox="0 0 64 64"><path d="M 53 9 C 49.907 9 33.971437 9.5090781 23.898438 19.580078 C 22.926396 20.552397 22.104407 21.586119 21.386719 22.640625 C 19.598113 22.815314 16.107327 23.460936 13.302734 25.876953 C 9.4157344 29.226953 9.0199063 34.640141 9.0039062 34.869141 C 8.9649062 35.456141 9.186375 36.0295 9.609375 36.4375 C 9.984375 36.7995 10.484 37 11 37 C 11.066 37 11.132266 36.997234 11.197266 36.990234 L 17.007812 36.408203 C 16.996475 36.756118 16.998966 36.982458 17 37.037109 C 17.01 37.555109 17.219937 38.048063 17.585938 38.414062 L 25.585938 46.414062 C 25.951938 46.780062 26.444891 46.989047 26.962891 46.998047 C 26.983891 46.999047 27.02875 47 27.09375 47 C 27.188403 47 27.41113 46.991494 27.591797 46.986328 L 27.009766 52.800781 C 26.951766 53.385781 27.1545 53.967625 27.5625 54.390625 C 27.9395 54.781625 28.459 55 29 55 C 29.043 55 29.086859 54.999094 29.130859 54.996094 C 29.358859 54.981094 34.772094 54.585266 38.121094 50.697266 C 40.534693 47.897054 41.183131 44.402221 41.359375 42.613281 C 42.413866 41.895437 43.445752 41.073925 44.417969 40.101562 C 54.489969 30.031562 55 14.093 55 11 C 55 9.896 54.104 9 53 9 z M 50.939453 13.060547 C 50.660453 18.138547 49.170844 29.692438 41.589844 37.273438 C 36.814844 42.048437 30.062734 42.842609 27.802734 42.974609 L 21.025391 36.197266 C 21.157391 33.936266 21.952562 27.185156 26.726562 22.410156 C 34.308563 14.829156 45.862453 13.339547 50.939453 13.060547 z M 40 20 C 37.791 20 36 21.791 36 24 C 36 26.209 37.791 28 40 28 C 42.209 28 44 26.209 44 24 C 44 21.791 42.209 20 40 20 z M 18.962891 27.232422 C 18.232159 29.070191 17.768846 30.828103 17.482422 32.341797 L 13.517578 32.738281 C 13.930578 31.486281 14.654063 29.99125 15.914062 28.90625 C 16.855367 28.095108 17.942139 27.57808 18.962891 27.232422 z M 15.585938 40.585938 C 13.852938 42.318938 12 45.702 12 50 C 12 51.104 12.896 52 14 52 C 18.296 52 21.680063 50.148063 23.414062 48.414062 L 20.585938 45.585938 C 20.388938 45.783938 18.975219 46.301781 17.699219 46.300781 C 17.699219 45.020781 18.217063 43.611063 18.414062 43.414062 L 15.585938 40.585938 z M 36.765625 45.039062 C 36.419486 46.058926 35.902563 47.145238 35.091797 48.085938 C 34.004797 49.347938 32.512719 50.071422 31.261719 50.482422 L 31.658203 46.517578 C 33.171252 46.231297 34.928986 45.769295 36.765625 45.039062 z"/></svg>