<svg xmlns="http://www.w3.org/2000/svg" viewBox="0 0 64 64"><path d="M 32.630859 6.0898438 C 32.440516 6.0722656 32.244531 6.0920938 32.050781 6.1523438 C 31.260781 6.3973437 30.818453 7.2363437 31.064453 8.0273438 C 31.179525 8.3976295 31.345467 8.9798491 31.527344 9.65625 C 31.456797 9.7336318 31.38737 9.8120568 31.328125 9.9023438 C 31.262125 10.001344 24.722422 19.931266 15.482422 30.697266 C 15.081422 31.165266 14.918062 31.790531 15.039062 32.394531 C 15.161062 32.998531 15.554469 33.513062 16.105469 33.789062 L 25.197266 38.335938 L 11.900391 39 C 11.290391 39.03 10.740859 39.340078 10.380859 39.830078 C 10.030859 40.320078 9.9103125 40.939297 10.070312 41.529297 L 11.699219 47.519531 C 13.409219 46.049531 15.97 44 20.5 44 C 25.25 44 27.829063 46.240469 29.539062 47.730469 C 30.154062 48.265469 31.080859 48.533203 32.005859 48.533203 C 32.930859 48.533203 33.855703 48.265469 34.470703 47.730469 C 36.180703 46.240469 38.76 44 43.5 44 C 47.28 44 49.679375 45.420234 51.359375 46.740234 C 52.359375 44.760234 53.299219 42.339688 53.949219 39.429688 C 54.089219 38.819688 53.929297 38.190937 53.529297 37.710938 C 53.129297 37.230938 52.520391 36.98 51.900391 37 L 48.734375 37.158203 C 46.726209 20.929862 36.977368 11.76496 34.761719 9.8710938 C 34.506916 8.9502194 34.233832 8.0281932 33.912109 7.0957031 C 33.714859 6.5242031 33.201891 6.1425781 32.630859 6.0898438 z M 32.642578 15.042969 C 32.686275 15.321006 32.735668 15.553242 32.777344 15.845703 C 33.161344 18.484703 33.350375 21.149641 33.359375 23.806641 C 33.398375 25.135641 33.299859 26.461156 33.255859 27.785156 C 33.115859 29.102156 33.054266 30.427516 32.822266 31.728516 C 32.568712 33.755806 32.12576 35.617821 31.722656 37.125 L 20.173828 31.349609 C 25.902505 24.508627 30.255708 18.46744 32.642578 15.042969 z M 36.314453 17.40625 C 39.550457 21.534816 43.518355 28.251543 44.724609 37.359375 L 35.587891 37.816406 C 36.011065 35.960833 36.362719 34.093029 36.542969 32.205078 C 36.746969 30.799078 36.773953 29.37975 36.876953 27.96875 C 36.883953 26.55475 36.941375 25.141422 36.859375 23.732422 C 36.787218 21.613559 36.607375 19.500937 36.314453 17.40625 z M 20.501953 47 C 16.878953 47 14.972453 48.658234 13.439453 49.990234 C 12.098453 51.157234 11.128 52 9 52 C 7.896 52 7 52.896 7 54 C 7 55.104 7.896 56 9 56 C 12.624 56 14.530453 54.342766 16.064453 53.009766 C 17.405453 51.843766 18.375906 51 20.503906 51 C 22.631906 51 23.601359 51.842766 24.943359 53.009766 C 26.476359 54.341766 28.382859 56 32.005859 56 C 35.627859 56 37.535406 54.341766 39.066406 53.009766 C 40.407406 51.843766 41.376953 51 43.501953 51 C 45.628953 51 46.5975 51.843766 47.9375 53.009766 C 49.4705 54.342766 51.378 56 55 56 C 56.104 56 57 55.104 57 54 C 57 52.896 56.104 52 55 52 C 52.874 52 51.9035 51.156234 50.5625 49.990234 C 49.0305 48.657234 47.124953 47 43.501953 47 C 39.879953 47 37.972406 48.657234 36.441406 49.990234 C 35.100406 51.156234 34.131859 52 32.005859 52 C 29.877859 52 28.909406 51.156234 27.566406 49.990234 C 26.033406 48.657234 24.125953 47 20.501953 47 z"/></svg>