<svg xmlns="http://www.w3.org/2000/svg" viewBox="0 0 50 50"><path d="M 25 1 C 19.466667 1 15 5.4666667 15 11 L 15 13 L 7.1074219 13 L 7.0058594 13.886719 L 2.8789062 50 L 15.832031 50 A 1.0001 1.0001 0 0 0 16.158203 50 L 24.832031 50 A 1.0001 1.0001 0 0 0 25.158203 50 L 33.832031 50 A 1.0001 1.0001 0 0 0 34.158203 50 L 47.121094 50 L 42.892578 13 L 35 13 L 35 11 C 35 5.4666667 30.533333 1 25 1 z M 25 3 C 29.466667 3 33 6.5333333 33 11 L 33 13 L 17 13 L 17 11 C 17 6.5333333 20.533333 3 25 3 z M 8.8925781 15 L 15 15 L 15 17.271484 A 2 2 0 0 0 14 19 A 2 2 0 0 0 16 21 A 2 2 0 0 0 18 19 A 2 2 0 0 0 17 17.269531 L 17 15 L 33 15 L 33 17.271484 A 2 2 0 0 0 32 19 A 2 2 0 0 0 34 21 A 2 2 0 0 0 36 19 A 2 2 0 0 0 35 17.269531 L 35 15 L 41.107422 15 L 44.878906 48 L 35 48 L 35 32 L 25.154297 32 A 1.0001 1.0001 0 0 0 24.984375 31.986328 A 1.0001 1.0001 0 0 0 24.839844 32 L 15 32 L 15 48 L 5.1210938 48 L 8.8925781 15 z M 17 34 L 24 34 L 24 48 L 17 48 L 17 34 z M 26 34 L 33 34 L 33 48 L 26 48 L 26 34 z M 21 40 A 1 1 0 0 0 20 41 A 1 1 0 0 0 21 42 A 1 1 0 0 0 22 41 A 1 1 0 0 0 21 40 z M 29 40 A 1 1 0 0 0 28 41 A 1 1 0 0 0 29 42 A 1 1 0 0 0 30 41 A 1 1 0 0 0 29 40 z"/></svg>