<svg xmlns="http://www.w3.org/2000/svg" viewBox="0 0 64 64"><path d="M 18 15 C 14.691 15 12 17.691 12 21 L 12 26.34375 C 9.672 27.16875 8 29.393 8 32 L 8 40 C 8 42.953317 9.6127487 45.532097 12 46.917969 L 12 48 C 12 48.552 12.448 49 13 49 L 18 49 C 18.552 49 19 48.552 19 48 L 45 48 C 45 48.552 45.448 49 46 49 L 51 49 C 51.552 49 52 48.552 52 48 L 52 46.917969 C 54.387251 45.532097 56 42.953317 56 40 L 56 32 C 56 29.393 54.328 27.16875 52 26.34375 L 52 21 C 52 17.691 49.309 15 46 15 L 18 15 z M 18 19 L 46 19 C 47.104 19 48 19.895 48 21 L 48 26.341797 C 45.671655 27.167117 44 29.392514 44 32 L 44 35.5 C 44 35.776 43.776 36 43.5 36 L 20.5 36 C 20.224 36 20 35.776 20 35.5 L 20 32 C 20 29.392514 18.328345 27.166581 16 26.341797 L 16 21 C 16 19.895 16.896 19 18 19 z M 49.986328 29.998047 C 49.987652 29.998056 49.98891 29.99804 49.990234 29.998047 C 49.993613 29.998064 49.996617 30 50 30 C 51.104 30 52 30.895 52 32 L 52 40 C 52 42.209 50.209 44 48 44 L 16 44 C 13.791 44 12 42.209 12 40 L 12 32 C 12 30.895 12.896 30 14 30 C 14.003316 29.999999 14.006446 30.000018 14.009766 30 C 15.110766 29.994 16 30.899 16 32 L 16 38 C 16 39.105 16.895 40 18 40 L 46 40 C 47.105 40 48 39.105 48 38 L 48 32 C 48 30.900322 48.88716 29.995235 49.986328 29.998047 z"/></svg>