<svg xmlns="http://www.w3.org/2000/svg" viewBox="0 0 64 64"><path d="M 32 8 C 30.896 8 30 8.896 30 10 L 30 11.097656 C 20.014206 12.045655 12.045749 20.013519 11.097656 30 L 10 30 C 8.896 30 8 30.896 8 32 C 8 33.104 8.896 34 10 34 L 11.097656 34 C 12.045749 43.986481 20.014206 51.954345 30 52.902344 L 30 54 C 30 55.104 30.896 56 32 56 C 33.104 56 34 55.104 34 54 L 34 52.902344 C 43.985794 51.954345 51.954251 43.986481 52.902344 34 L 54 34 C 55.104 34 56 33.104 56 32 C 56 30.896 55.104 30 54 30 L 52.902344 30 C 51.954251 20.013519 43.985794 12.045655 34 11.097656 L 34 10 C 34 8.896 33.104 8 32 8 z M 30 15.128906 L 30 16 C 30 17.104 30.896 18 32 18 C 33.104 18 34 17.104 34 16 L 34 15.128906 C 41.776447 16.045694 47.954306 22.223553 48.871094 30 L 48 30 C 46.896 30 46 30.896 46 32 C 46 33.104 46.896 34 48 34 L 48.871094 34 C 47.954306 41.776447 41.776447 47.954306 34 48.871094 L 34 48 C 34 46.896 33.104 46 32 46 C 30.896 46 30 46.896 30 48 L 30 48.871094 C 22.223553 47.954306 16.045694 41.776447 15.128906 34 L 16 34 C 17.104 34 18 33.104 18 32 C 18 30.896 17.104 30 16 30 L 15.128906 30 C 16.045694 22.223553 22.223553 16.045694 30 15.128906 z M 32 28 C 29.791 28 28 29.791 28 32 C 28 34.209 29.791 36 32 36 C 34.209 36 36 34.209 36 32 C 36 29.791 34.209 28 32 28 z"/></svg>