<svg xmlns="http://www.w3.org/2000/svg" viewBox="0 0 64 64"><path d="M 30 6 C 25.037 6 21 10.038 21 15 L 21 37.068359 C 19.06 39.261359 18 42.046 18 45 C 18 51.617 23.383 57 30 57 C 36.617 57 42 51.617 42 45 C 42 42.047 40.94 39.261359 39 37.068359 L 39 15 C 39 10.038 34.963 6 30 6 z M 30 10 C 32.757 10 35 12.243 35 15 L 35 37.863281 C 35 38.400281 35.215609 38.916969 35.599609 39.292969 C 37.146609 40.811969 38 42.838 38 45 C 38 49.411 34.411 53 30 53 C 25.589 53 22 49.411 22 45 C 22 42.838 22.853391 40.811969 24.400391 39.292969 C 24.784391 38.915969 25 38.400281 25 37.863281 L 25 15 C 25 12.243 27.243 10 30 10 z M 42.5 14 C 41.672 14 41 14.671 41 15.5 C 41 16.329 41.672 17 42.5 17 L 46.5 17 C 47.328 17 48 16.329 48 15.5 C 48 14.671 47.328 14 46.5 14 L 42.5 14 z M 42.5 20 C 41.672 20 41 20.671 41 21.5 C 41 22.329 41.672 23 42.5 23 L 46.5 23 C 47.328 23 48 22.329 48 21.5 C 48 20.671 47.328 20 46.5 20 L 42.5 20 z M 30 25 C 28.896 25 28 25.895 28 27 L 28 40.421875 C 26.236 41.193875 25 42.951 25 45 C 25 47.761 27.239 50 30 50 C 32.761 50 35 47.761 35 45 C 35 42.951 33.764 41.193875 32 40.421875 L 32 27 C 32 25.895 31.104 25 30 25 z M 42.5 26 C 41.672 26 41 26.671 41 27.5 C 41 28.329 41.672 29 42.5 29 L 46.5 29 C 47.328 29 48 28.329 48 27.5 C 48 26.671 47.328 26 46.5 26 L 42.5 26 z M 42.5 32 C 41.672 32 41 32.671 41 33.5 C 41 34.329 41.672 35 42.5 35 L 46.5 35 C 47.328 35 48 34.329 48 33.5 C 48 32.671 47.328 32 46.5 32 L 42.5 32 z"/></svg>