<svg xmlns="http://www.w3.org/2000/svg" viewBox="0 0 64 64"><path d="M 43.421875 7 C 38.266875 7 32.600703 9.354375 28.095703 13.859375 C 23.501315 18.453763 21.164286 24.251119 21.259766 29.486328 L 21.248047 29.460938 C 21.248047 29.460938 21.999156 38.444203 17.285156 43.158203 L 19.0625 44.9375 L 20.841797 46.714844 C 25.550566 42.007073 34.507559 42.749984 34.53125 42.751953 C 34.531281 42.751956 34.539062 42.751953 34.539062 42.751953 C 34.631484 42.753481 34.721691 42.763672 34.814453 42.763672 C 39.969453 42.763672 45.635625 40.409297 50.140625 35.904297 C 57.916625 28.128297 59.285266 16.890734 53.197266 10.802734 C 50.636266 8.2427344 47.163875 7 43.421875 7 z M 43.421875 11 C 45.390875 11 48.194141 11.456812 50.369141 13.632812 C 52.628141 15.891812 53.414328 19.201656 52.861328 22.722656 C 52.307328 26.243656 50.4145 29.974172 47.3125 33.076172 C 43.7505 36.637172 39.080406 38.763672 34.816406 38.763672 C 32.846406 38.763672 30.041187 38.306812 27.867188 36.132812 C 25.811188 34.076812 24.914844 31.019391 25.339844 27.525391 C 25.809844 23.667391 27.793781 19.8195 30.925781 16.6875 C 34.486781 13.1265 39.157875 11 43.421875 11 z M 12 12.5 C 9.515 12.5 7.5 14.515 7.5 17 C 7.5 19.485 9.515 21.5 12 21.5 C 14.485 21.5 16.5 19.485 16.5 17 C 16.5 14.515 14.485 12.5 12 12.5 z M 14.445312 44.576172 L 7.7675781 51.253906 C 6.7425781 52.277906 6.7425781 53.939844 7.7675781 54.964844 L 9.0351562 56.232422 C 10.060156 57.256422 11.722094 57.256422 12.746094 56.232422 L 19.423828 49.554688 L 14.445312 44.576172 z"/></svg>