<svg xmlns="http://www.w3.org/2000/svg" viewBox="0 0 64 64"><path d="M 32 6 C 27.037 6 23 10.038 23 15 L 23 37.068359 C 21.06 39.261359 20 42.046 20 45 C 20 51.617 25.383 57 32 57 C 38.617 57 44 51.617 44 45 C 44 42.047 42.94 39.261359 41 37.068359 L 41 15 C 41 10.038 36.963 6 32 6 z M 32 10 C 34.757 10 37 12.243 37 15 L 37 37.863281 C 37 38.400281 37.215609 38.916969 37.599609 39.292969 C 39.146609 40.811969 40 42.838 40 45 C 40 49.411 36.411 53 32 53 C 27.589 53 24 49.411 24 45 C 24 42.838 24.853391 40.811969 26.400391 39.292969 C 26.784391 38.915969 27 38.400281 27 37.863281 L 27 15 C 27 12.243 29.243 10 32 10 z M 32 25 C 30.896 25 30 25.895 30 27 L 30 40.421875 C 28.236 41.193875 27 42.951 27 45 C 27 47.761 29.239 50 32 50 C 34.761 50 37 47.761 37 45 C 37 42.951 35.764 41.193875 34 40.421875 L 34 27 C 34 25.895 33.104 25 32 25 z"/></svg>