<svg xmlns="http://www.w3.org/2000/svg" viewBox="0 0 64 64"><path d="M 32.488281 9 C 25.961281 9 22.794344 13.213516 21.652344 15.228516 C 16.349344 16.526516 14.438359 21.117172 14.068359 24.076172 C 12.755359 25.429172 10 28.920625 10 34.390625 C 10 41.819342 16.376844 49.293625 30.511719 49.9375 L 30.402344 54.333984 C 30.365344 55.794984 31.549156 56.998047 33.035156 56.998047 C 34.521156 56.998047 35.671656 55.754531 35.597656 54.269531 L 34.853516 39.390625 L 43.521484 33.923828 C 43.899484 33.685828 44.066563 33.185922 43.976562 32.794922 C 43.829563 32.154922 43.160266 31.840078 42.572266 32.080078 L 34.650391 35.318359 L 34.001953 22.330078 C 33.963953 21.585078 33.358562 21 32.601562 21 C 31.844562 21 31.218219 21.605234 31.199219 22.365234 L 31.023438 29.423828 L 25.09375 25.162109 C 24.71175 24.887109 24.156859 24.970359 23.880859 25.318359 C 23.604859 25.666359 23.611641 26.188625 23.931641 26.515625 L 27.291016 29.949219 L 21.4375 33.013672 C 21.0615 33.210672 20.903594 33.683734 21.058594 34.052734 C 21.213594 34.421734 21.690469 34.663766 22.105469 34.509766 L 28.855469 32 L 30.912109 33.863281 L 30.611328 45.945312 C 19.164303 45.398093 14 39.876462 14 34.390625 C 14 28.990625 17.246562 26.596609 17.976562 25.974609 C 17.906562 18.880609 24.425781 18.794922 24.425781 18.794922 C 24.425781 18.794922 26.062281 13 32.488281 13 C 41.710281 13 42.162109 22.435547 42.162109 22.435547 C 42.162109 22.435547 50 24.676625 50 32.390625 C 50 42.220625 40.103453 43.956437 39.689453 44.023438 C 38.597453 44.195437 37.853391 45.219547 38.025391 46.310547 C 38.197391 47.402547 39.227547 48.145609 40.310547 47.974609 C 45.045547 47.229609 54 43.015625 54 32.390625 C 54 24.633625 48.256016 20.875094 45.791016 19.621094 C 44.862016 15.406094 41.238281 9 32.488281 9 z"/></svg>