<svg xmlns="http://www.w3.org/2000/svg" viewBox="0 0 64 64"><path d="M 20 11 L 20 20.300781 C 20 21.300781 20.300781 22.2 21.300781 22.5 L 22 22.699219 L 22 46 C 22 47.7 23.3 49 25 49 C 26.7 49 28 47.7 28 46 L 28 22.699219 L 28.699219 22.5 C 29.699219 22.2 30 21.300781 30 20.300781 L 30 11 L 28 11 L 28 20 L 26 20 L 26 11 L 24 11 L 24 20 L 22 20 L 22 11 L 20 11 z M 39 11 C 36.2 11 34 13.2 34 16 L 34 23 C 34 24.7 35.3 26 37 26 L 38 26 L 38 46 C 38 47.7 39.3 49 41 49 C 42.7 49 44 47.7 44 46 L 44 26 L 45 26 C 46.7 26 48 24.7 48 23 L 48 16 C 48 13.2 45.8 11 43 11 C 42.3 11 41.599219 11.2 41.199219 11.5 C 40.799219 11.2 40.1 11 39 11 z"/></svg>