<svg xmlns="http://www.w3.org/2000/svg" viewBox="0 0 50 50"><path d="M 6.8125 6 C 6.496094 6.0625 6.230469 6.269531 6.09375 6.5625 C 6.09375 6.5625 4.304688 10 1 10 C 0.640625 9.996094 0.304688 10.183594 0.121094 10.496094 C -0.0585938 10.808594 -0.0585938 11.191406 0.121094 11.503906 C 0.304688 11.816406 0.640625 12.003906 1 12 C 4.410156 12 6.113281 9.960938 7 8.65625 C 7.882813 9.964844 9.570313 12 13 12 C 16.429688 12 18.117188 9.964844 19 8.65625 C 19.878906 9.964844 21.570313 12 25 12 C 28.429688 12 30.121094 9.964844 31 8.65625 C 31.878906 9.964844 33.566406 12 37 12 C 40.433594 12 42.121094 9.964844 43 8.65625 C 43.882813 9.960938 45.585938 12 49 12 C 49.359375 12.003906 49.695313 11.816406 49.878906 11.503906 C 50.058594 11.191406 50.058594 10.808594 49.878906 10.496094 C 49.695313 10.183594 49.359375 9.996094 49 10 C 45.6875 10 43.90625 6.5625 43.90625 6.5625 C 43.742188 6.210938 43.386719 5.984375 43 5.984375 C 42.613281 5.984375 42.257813 6.210938 42.09375 6.5625 C 42.09375 6.5625 40.359375 10 37 10 C 33.640625 10 31.90625 6.5625 31.90625 6.5625 C 31.742188 6.210938 31.386719 5.984375 31 5.984375 C 30.613281 5.984375 30.257813 6.210938 30.09375 6.5625 C 30.09375 6.5625 28.359375 10 25 10 C 21.640625 10 19.90625 6.5625 19.90625 6.5625 C 19.742188 6.210938 19.386719 5.984375 19 5.984375 C 18.613281 5.984375 18.257813 6.210938 18.09375 6.5625 C 18.09375 6.5625 16.355469 10 13 10 C 9.644531 10 7.90625 6.5625 7.90625 6.5625 C 7.722656 6.183594 7.324219 5.957031 6.90625 6 C 6.875 6 6.84375 6 6.8125 6 Z M 6.8125 22 C 6.496094 22.0625 6.230469 22.269531 6.09375 22.5625 C 6.09375 22.5625 4.304688 26 1 26 C 0.640625 25.996094 0.304688 26.183594 0.121094 26.496094 C -0.0585938 26.808594 -0.0585938 27.191406 0.121094 27.503906 C 0.304688 27.816406 0.640625 28.003906 1 28 C 4.410156 28 6.113281 25.960938 7 24.65625 C 7.882813 25.964844 9.570313 28 13 28 C 16.429688 28 18.117188 25.964844 19 24.65625 C 19.878906 25.964844 21.570313 28 25 28 C 28.429688 28 30.121094 25.964844 31 24.65625 C 31.878906 25.964844 33.566406 28 37 28 C 40.433594 28 42.121094 25.964844 43 24.65625 C 43.882813 25.960938 45.585938 28 49 28 C 49.359375 28.003906 49.695313 27.816406 49.878906 27.503906 C 50.058594 27.191406 50.058594 26.808594 49.878906 26.496094 C 49.695313 26.183594 49.359375 25.996094 49 26 C 45.6875 26 43.90625 22.5625 43.90625 22.5625 C 43.742188 22.210938 43.386719 21.984375 43 21.984375 C 42.613281 21.984375 42.257813 22.210938 42.09375 22.5625 C 42.09375 22.5625 40.359375 26 37 26 C 33.640625 26 31.90625 22.5625 31.90625 22.5625 C 31.742188 22.210938 31.386719 21.984375 31 21.984375 C 30.613281 21.984375 30.257813 22.210938 30.09375 22.5625 C 30.09375 22.5625 28.359375 26 25 26 C 21.640625 26 19.90625 22.5625 19.90625 22.5625 C 19.742188 22.210938 19.386719 21.984375 19 21.984375 C 18.613281 21.984375 18.257813 22.210938 18.09375 22.5625 C 18.09375 22.5625 16.355469 26 13 26 C 9.644531 26 7.90625 22.5625 7.90625 22.5625 C 7.722656 22.183594 7.324219 21.957031 6.90625 22 C 6.875 22 6.84375 22 6.8125 22 Z M 6.8125 38 C 6.496094 38.0625 6.230469 38.269531 6.09375 38.5625 C 6.09375 38.5625 4.304688 42 1 42 C 0.640625 41.996094 0.304688 42.183594 0.121094 42.496094 C -0.0585938 42.808594 -0.0585938 43.191406 0.121094 43.503906 C 0.304688 43.816406 0.640625 44.003906 1 44 C 4.410156 44 6.113281 41.960938 7 40.65625 C 7.882813 41.964844 9.570313 44 13 44 C 16.429688 44 18.117188 41.964844 19 40.65625 C 19.878906 41.964844 21.570313 44 25 44 C 28.429688 44 30.121094 41.964844 31 40.65625 C 31.878906 41.964844 33.566406 44 37 44 C 40.433594 44 42.121094 41.964844 43 40.65625 C 43.882813 41.960938 45.585938 44 49 44 C 49.359375 44.003906 49.695313 43.816406 49.878906 43.503906 C 50.058594 43.191406 50.058594 42.808594 49.878906 42.496094 C 49.695313 42.183594 49.359375 41.996094 49 42 C 45.6875 42 43.90625 38.5625 43.90625 38.5625 C 43.742188 38.210938 43.386719 37.984375 43 37.984375 C 42.613281 37.984375 42.257813 38.210938 42.09375 38.5625 C 42.09375 38.5625 40.359375 42 37 42 C 33.640625 42 31.90625 38.5625 31.90625 38.5625 C 31.742188 38.210938 31.386719 37.984375 31 37.984375 C 30.613281 37.984375 30.257813 38.210938 30.09375 38.5625 C 30.09375 38.5625 28.359375 42 25 42 C 21.640625 42 19.90625 38.5625 19.90625 38.5625 C 19.742188 38.210938 19.386719 37.984375 19 37.984375 C 18.613281 37.984375 18.257813 38.210938 18.09375 38.5625 C 18.09375 38.5625 16.355469 42 13 42 C 9.644531 42 7.90625 38.5625 7.90625 38.5625 C 7.722656 38.183594 7.324219 37.957031 6.90625 38 C 6.875 38 6.84375 38 6.8125 38 Z"/></svg>