<svg xmlns="http://www.w3.org/2000/svg" viewBox="0 0 64 64"><path d="M 31.992188 12.205078 C 28.341188 12.205078 24.820734 12.721906 21.427734 13.753906 C 18.035734 14.785906 14.94425 16.192516 12.15625 17.978516 C 9.36925 19.764516 7.0632813 21.788781 5.2382812 24.050781 C 5.0792813 24.268781 5 24.500047 5 24.748047 C 5 24.996047 5.1081719 25.229266 5.3261719 25.447266 L 8.6601562 28.810547 C 8.8791562 29.068547 9.1478438 29.193594 9.4648438 29.183594 C 9.7818437 29.173594 10.058875 29.03925 10.296875 28.78125 C 13.153875 25.72625 16.432813 23.414656 20.132812 21.847656 C 23.832813 20.280656 27.786188 19.496094 31.992188 19.496094 C 36.238187 19.496094 40.210156 20.289953 43.910156 21.876953 C 47.610156 23.463953 50.898391 25.774547 53.775391 28.810547 C 53.994391 29.028547 54.256453 29.138672 54.564453 29.138672 C 54.872453 29.138672 55.135516 29.009953 55.353516 28.751953 L 58.6875 25.447266 C 58.8855 25.229266 58.988047 24.996047 58.998047 24.748047 C 59.008047 24.500047 58.925094 24.268781 58.746094 24.050781 C 56.921094 21.788781 54.613172 19.764516 51.826172 17.978516 C 49.039172 16.192516 45.949641 14.785906 42.556641 13.753906 C 39.163641 12.722906 35.643188 12.205078 31.992188 12.205078 z M 31.992188 25.806641 C 29.532188 25.806641 27.196375 26.143359 24.984375 26.818359 C 22.771375 27.493359 20.772328 28.405641 18.986328 29.556641 C 17.200328 30.707641 15.713437 32.007078 14.523438 33.455078 C 14.344438 33.673078 14.259531 33.906297 14.269531 34.154297 C 14.279531 34.402297 14.393328 34.635516 14.611328 34.853516 L 18.332031 38.542969 C 18.590031 38.819969 18.873641 38.943062 19.181641 38.914062 C 19.488641 38.885063 19.771297 38.731125 20.029297 38.453125 C 21.398297 36.906125 23.14825 35.627234 25.28125 34.615234 C 27.41425 33.603234 29.651187 33.106953 31.992188 33.126953 C 34.372187 33.107953 36.630672 33.618156 38.763672 34.660156 C 40.896672 35.702156 42.665219 36.996922 44.074219 38.544922 C 44.312219 38.802922 44.576281 38.931641 44.863281 38.931641 C 45.150281 38.931641 45.423641 38.791672 45.681641 38.513672 L 49.402344 34.853516 C 49.600344 34.654516 49.704844 34.427922 49.714844 34.169922 C 49.724844 33.911922 49.649234 33.673078 49.490234 33.455078 C 48.300234 32.006078 46.813344 30.707641 45.027344 29.556641 C 43.241344 28.405641 41.241297 27.493359 39.029297 26.818359 C 36.817297 26.143359 34.472188 25.806641 31.992188 25.806641 z M 31.992188 39.435547 C 30.266188 39.435547 28.709312 39.831 27.320312 40.625 C 25.931313 41.419 24.850172 42.341578 24.076172 43.392578 C 23.957172 43.570578 23.922656 43.770281 23.972656 43.988281 C 24.022656 44.206281 24.14575 44.403031 24.34375 44.582031 L 30.027344 50.089844 C 30.503344 50.526844 30.881203 50.827094 31.158203 50.996094 C 31.435203 51.165094 31.714188 51.25 31.992188 51.25 C 32.270188 51.25 32.547219 51.171672 32.824219 51.013672 C 33.102219 50.854672 33.479078 50.545844 33.955078 50.089844 L 39.699219 44.583984 C 39.877219 44.404984 39.987344 44.187688 40.027344 43.929688 C 40.067344 43.671687 39.997359 43.432844 39.818359 43.214844 C 39.024359 42.202844 37.943219 41.320406 36.574219 40.566406 C 35.205219 39.812406 33.678187 39.435547 31.992188 39.435547 z"/></svg>