<svg xmlns="http://www.w3.org/2000/svg" viewBox="0 0 50 50"><path d="M 15.5 4 C 12.829713 4 10.48004 5.4063162 9.1542969 7.5136719 A 1.0001 1.0001 0 1 0 10.845703 8.5800781 C 11.81996 7.0314338 13.530287 6 15.5 6 C 18.598056 6 21.077993 8.5260383 20.998047 11.646484 C 20.920731 14.650056 18.260652 17 15.199219 17 L 4 17 A 1.0001 1.0001 0 1 0 4 19 L 15.199219 19 C 19.287785 19 22.891363 15.841694 22.998047 11.697266 C 23.106101 7.4797117 19.695944 4 15.5 4 z M 38 8 C 34.617055 8 31.65948 9.8748171 30.125 12.644531 A 1.0005954 1.0005954 0 1 0 31.875 13.615234 C 33.06852 11.460949 35.354945 10 38 10 C 42.021546 10 45.23173 13.350607 44.986328 17.433594 C 44.762543 21.156952 41.467737 24 37.6875 24 L 4 24 A 1.0001 1.0001 0 1 0 4 26 L 37.6875 26 C 42.473263 26 46.692207 22.383329 46.982422 17.554688 C 47.29502 12.353674 43.142454 8 38 8 z M 4 31 A 1.0001 1.0001 0 1 0 4 33 L 25.199219 33 C 28.260652 33 30.920731 35.349944 30.998047 38.353516 C 31.077993 41.473962 28.598056 44 25.5 44 C 23.530287 44 21.81996 42.968566 20.845703 41.419922 A 1.0001 1.0001 0 1 0 19.154297 42.486328 C 20.48004 44.593684 22.829713 46 25.5 46 C 29.695944 46 33.106101 42.520288 32.998047 38.302734 C 32.891363 34.158306 29.287785 31 25.199219 31 L 4 31 z"/></svg>